<svg t="1584002268838" class="icon" viewBox="0 0 1024 1024" version="1.1" xmlns="http://www.w3.org/2000/svg" p-id="36364" width="128" height="128"><path d="M806.879954 773.439879A128.07998 128.07998 0 0 0 735.999965 751.999883h-111.999982l-31.999995 79.999987-77.919988-15.519998L512 815.999873l-79.999988 15.999997-31.999995-79.999987h-111.999982c-26.255996 0-50.559992 7.999999-70.895989 21.599996A127.32798 127.32798 0 0 0 160.000055 879.999863v111.999982c0 8.799999 7.199999 15.999998 15.999997 15.999998h671.999896c8.799999 0 15.999998-7.199999 15.999997-15.999998v-111.999982c0-44.479993-22.719996-83.679987-57.119991-106.559984z" fill="#ED5565" p-id="36365"></path><path d="M806.879954 773.439879A128.07998 128.07998 0 0 0 735.999965 751.999883h-63.99999a128.07998 128.07998 0 0 1 127.99998 127.99998v111.999982c0 8.799999-7.199999 15.999998-15.999997 15.999998h63.99999c8.799999 0 15.999998-7.199999 15.999997-15.999998v-111.999982c0-44.479993-22.719996-83.679987-57.119991-106.559984z" fill="#DA4453" p-id="36366"></path><path d="M512 767.99988c45.743993-15.359998 84.159987-36.799994 111.999983-62.71999V751.999883l-31.999995 79.999987-77.919988-15.519998L512 815.999873l-79.999988 15.999997-31.999995-79.999987v-46.719993c27.839996 25.919996 66.38399 47.359993 111.999983 62.71999z" fill="#F5F7FA" p-id="36367"></path><path d="M639.99998 63.99999c26.559996 0 47.999993-21.439997 47.999993-47.999992v47.999992c0 31.359995-11.039998 59.839991-29.439996 81.919987A128.47998 128.47998 0 0 1 559.999993 191.99997h-111.999983c-33.759995 0-61.27999-25.919996-63.67999-59.039991C384.00002 131.359979 384.00002 129.59998 384.00002 127.99998c0-35.359994 28.639996-63.99999 63.99999-63.99999h191.99997z" fill="#FC6E51" p-id="36368"></path><path d="M639.99998 63.99999h-15.999997c0 31.359995-11.039998 59.839991-29.439996 81.919987A128.47998 128.47998 0 0 1 496.000002 191.99997h63.999991a128.47998 128.47998 0 0 0 98.559984-46.079993A127.26398 127.26398 0 0 0 687.999973 63.99999V15.999998c0 26.559996-21.439997 47.999993-47.999993 47.999992z" fill="#E9573F" p-id="36369"></path><path d="M551.999994 479.999925a39.999994 39.999994 0 0 0-39.999994 39.999994 39.999994 39.999994 0 0 0-39.999994-39.999994H384.00002c-26.559996 0-47.999993-21.439997-47.999993-47.999992v47.999992c0 17.919997 5.919999 34.559995 16.159998 47.839993L352.000025 527.999918v79.999987c0 6.879999 0.64 13.759998 1.92 20.479997C303.840033 584.479909 272.000037 519.999919 272.000037 447.99993v-111.999982c0-85.439987 44.799993-160.479975 111.999983-203.039969h0.32A63.66399 63.66399 0 0 0 448.00001 191.99997h111.999983a128.47998 128.47998 0 0 0 98.559984-46.079993C715.359968 189.75997 751.999963 258.71996 751.999963 335.999948v111.999982c0 71.039989-30.895995 134.879979-79.999988 178.879972V527.999918c10.079998-13.279998 15.999998-29.919995 15.999998-47.999993v-47.999992c0 26.559996-21.439997 47.999993-47.999993 47.999992h-87.999986z" fill="#EAC6BB" p-id="36370"></path><path d="M551.999994 479.999925a39.999994 39.999994 0 0 0-39.999994 39.999994 39.999994 39.999994 0 0 0-39.999994-39.999994H384.00002c-26.559996 0-47.999993-21.439997-47.999993-47.999992v47.999992c0 17.919997 5.919999 34.559995 16.159998 47.839993L352.000025 527.999918v79.999987c0 6.879999 0.64 13.759998 1.92 20.479997C303.840033 584.479909 272.000037 519.999919 272.000037 447.99993v-111.999982c0-85.439987 44.799993-160.479975 111.999983-203.039969h0.32A63.66399 63.66399 0 0 0 448.00001 191.99997h111.999983a128.47998 128.47998 0 0 0 98.559984-46.079993C715.359968 189.75997 751.999963 258.71996 751.999963 335.999948v111.999982c0 71.039989-30.895995 134.879979-79.999988 178.879972V527.999918c10.079998-13.279998 15.999998-29.919995 15.999998-47.999993v-47.999992c0 26.559996-21.439997 47.999993-47.999993 47.999992h-87.999986z" fill="#EAC6BB" p-id="36371"></path><path d="M658.559977 145.919977a129.91998 129.91998 0 0 1-33.727995 28.335996C663.871976 216.975966 687.999973 273.647957 687.999973 335.999948v111.999982c0 19.695997-2.368 38.863994-6.863999 57.183991-1.2 4.927999-7.631999 18.015997-9.135999 22.815997-2.992 9.535999-1.472 10.559998-5.567999 19.535996C670.703975 578.31991 671.999975 607.999905 671.999975 607.999905v18.879997c49.103992-43.999993 79.999988-107.823983 79.999988-178.879972v-111.999982c0-77.279988-36.639994-146.239977-93.439986-190.079971z" fill="#D3B1A9" p-id="36372"></path><path d="M512 519.999919a39.999994 39.999994 0 0 0 39.999994 39.999994H607.999985c26.239996 0 49.439992-12.639998 63.99999-31.999995v79.999987c0 7.039999-0.64 13.919998-1.92 20.639997-5.439999 27.999996-21.615997 53.919992-46.079992 76.639988-27.839996 25.919996-66.25599 47.359993-111.999983 62.71999-45.615993-15.359998-84.159987-36.799994-111.999983-62.71999-24.479996-22.719996-40.639994-48.799992-46.079992-76.799988-1.28-6.719999-1.92-13.599998-1.92-20.479997v-79.999987l0.16-0.16A79.055988 79.055988 0 0 0 416.000015 559.999913h55.999991a39.999994 39.999994 0 0 0 39.999994-39.999994z" fill="#E9573F" p-id="36373"></path><path d="M384.00002 479.999925h87.999986a39.999994 39.999994 0 0 1 0 79.999988H416.000015c-26.255996 0-49.439992-12.639998-63.83999-32.159995A78.063988 78.063988 0 0 1 336.000027 479.999925v-47.999992c0 26.559996 21.439997 47.999993 47.999993 47.999992z" fill="#FC6E51" p-id="36374"></path><path d="M687.999973 479.999925c0 18.079997-5.919999 34.719995-15.999998 47.999993-14.559998 19.359997-37.759994 31.999995-63.99999 31.999995h-55.999991a39.999994 39.999994 0 0 1 0-79.999988H639.99998c26.559996 0 47.999993-21.439997 47.999993-47.999992v47.999992z" fill="#FC6E51" p-id="36375"></path><path d="M160.000055 896.03186a15.999998 15.999998 0 0 1-15.999998-15.999998C144.000057 800.607875 208.608047 735.999885 288.032035 735.999885a15.999998 15.999998 0 1 1 0 31.999995A112.159982 112.159982 0 0 0 176.000052 880.031862a15.999998 15.999998 0 0 1-15.999997 15.999998zM863.999945 896.01586a15.999998 15.999998 0 0 1-15.999997-15.999998c0-61.74399-50.255992-111.999983-111.999983-111.999982a15.999998 15.999998 0 1 1 0-31.999995c79.407988 0 143.999978 64.59199 143.999978 143.999977a15.999998 15.999998 0 0 1-15.999998 15.999998z" p-id="36376"></path><path d="M400.000017 768.01588L288.032035 767.99988a15.999998 15.999998 0 1 1 0-31.999995l111.967982 0.016a15.999998 15.999998 0 1 1 0 31.999995zM735.999965 768.01588L623.999983 767.99988a15.999998 15.999998 0 1 1 0-31.999995l111.999982 0.016a15.999998 15.999998 0 1 1 0 31.999995zM160.016055 1007.983843a15.999998 15.999998 0 0 1-15.999998-15.999998L144.000057 880.031862a15.999998 15.999998 0 1 1 31.999995 0l0.016 111.951983a15.999998 15.999998 0 0 1-15.999997 15.999998z" p-id="36377"></path><path d="M176.016052 1023.98384c-17.647997 0-31.999995-14.351998-31.999995-31.999995a15.999998 15.999998 0 1 1 31.999995 0v0.032a15.967998 15.967998 0 1 1 0 31.967995zM847.999948 1023.98384a15.999998 15.999998 0 1 1 0-31.999995h0.031999a15.967998 15.967998 0 1 1 31.967996 0c0 17.647997-14.351998 31.999995-31.999995 31.999995z" p-id="36378"></path><path d="M863.999945 1007.983843a15.999998 15.999998 0 0 1-15.999997-15.999998v-111.967983a15.999998 15.999998 0 1 1 31.999995 0v111.967983a15.999998 15.999998 0 0 1-15.999998 15.999998z" p-id="36379"></path><path d="M847.999948 1023.98384H176.016052a15.999998 15.999998 0 1 1 0-31.999995H847.999948a15.999998 15.999998 0 1 1 0 31.999995zM400.000017 768.01588a15.999998 15.999998 0 0 1-15.999997-15.999998v-46.719992a15.999998 15.999998 0 1 1 31.999995 0v46.719992a15.999998 15.999998 0 0 1-15.999998 15.999998zM623.999983 767.99988a15.999998 15.999998 0 0 1-15.999998-15.999997v-46.719993a15.999998 15.999998 0 1 1 31.999995 0V751.999883a15.999998 15.999998 0 0 1-15.999997 15.999997zM751.999963 352.015945a15.999998 15.999998 0 0 1-15.999998-15.999998c0-69.967989-31.823995-134.655979-87.311986-177.471972a16.015997 16.015997 0 0 1 19.551997-25.343996C731.647966 182.127972 767.99996 256.04796 767.99996 336.015947a15.999998 15.999998 0 0 1-15.999997 15.999998zM272.000037 352.015945a15.999998 15.999998 0 0 1-15.999997-15.999998c0-88.351986 44.655993-169.311974 119.455981-216.575966a15.999998 15.999998 0 0 1 17.087998 27.071996A223.023965 223.023965 0 0 0 288.000035 336.015947a15.999998 15.999998 0 0 1-15.999998 15.999998z" p-id="36380"></path><path d="M272.000037 479.999925a15.999998 15.999998 0 0 1-15.999997-15.999997v-127.983981a15.999998 15.999998 0 1 1 31.999995 0V463.999928a15.999998 15.999998 0 0 1-15.999998 15.999997zM751.999963 479.999925a15.999998 15.999998 0 0 1-15.999998-15.999997v-127.983981a15.999998 15.999998 0 1 1 31.999995 0V463.999928a15.999998 15.999998 0 0 1-15.999997 15.999997zM688.495972 272.015957c-8.847999 0-16.079997-7.151999-16.079997-15.999997s7.071999-15.999998 15.903997-15.999998h0.176a15.999998 15.999998 0 1 1 0 31.999995zM672.479975 224.015965c-8.847999 0-16.079997-7.151999-16.079998-15.999998s7.071999-15.999998 15.903998-15.999997h0.176a15.999998 15.999998 0 1 1 0 31.999995zM640.47998 256.01596c-8.847999 0-16.079997-7.151999-16.079998-15.999998s7.071999-15.999998 15.903998-15.999997h0.176a15.999998 15.999998 0 1 1 0 31.999995zM336.464027 272.015957c-8.847999 0-16.079997-7.151999-16.079997-15.999997s7.071999-15.999998 15.903997-15.999998h0.176a15.999998 15.999998 0 1 1 0 31.999995zM352.480025 224.015965c-8.847999 0-16.079997-7.151999-16.079998-15.999998s7.071999-15.999998 15.903998-15.999997h0.176a15.999998 15.999998 0 1 1 0 31.999995zM384.48002 256.01596c-8.847999 0-16.079997-7.151999-16.079998-15.999998s7.071999-15.999998 15.903998-15.999997h0.176a15.999998 15.999998 0 1 1 0 31.999995zM416.000015 575.98391c-52.943992 0-95.999985-43.055993-95.999985-95.999985a15.999998 15.999998 0 1 1 31.999995 0c0 35.295994 28.703996 63.99999 63.99999 63.99999a15.999998 15.999998 0 1 1 0 31.999995z" p-id="36381"></path><path d="M384.00002 495.983923c-35.295994 0-63.99999-28.703996-63.99999-63.99999a15.999998 15.999998 0 1 1 31.999995 0c0 17.647997 14.351998 31.999995 31.999995 31.999995a15.999998 15.999998 0 1 1 0 31.999995z" p-id="36382"></path><path d="M472.000006 495.983923H384.00002a15.999998 15.999998 0 1 1 0-31.999995h87.999986a15.999998 15.999998 0 1 1 0 31.999995zM472.000006 575.98391H416.000015a15.999998 15.999998 0 1 1 0-31.999995h55.999991a15.999998 15.999998 0 1 1 0 31.999995z" p-id="36383"></path><path d="M472.000006 575.98391a15.999998 15.999998 0 1 1 0-31.999995c13.231998 0 23.999996-10.767998 23.999996-23.999996s-10.767998-23.999996-23.999996-23.999996a15.999998 15.999998 0 1 1 0-31.999995c30.879995 0 55.999991 25.119996 55.999992 55.999991s-25.119996 55.999991-55.999992 55.999991zM336.000027 495.983923a15.999998 15.999998 0 0 1-15.999997-15.999998v-47.999992a15.999998 15.999998 0 1 1 31.999995 0v47.999992a15.999998 15.999998 0 0 1-15.999998 15.999998zM607.999985 575.98391a15.999998 15.999998 0 1 1 0-31.999995c35.295994 0 63.99999-28.703996 63.99999-63.99999a15.999998 15.999998 0 1 1 31.999995 0c0 52.943992-43.055993 95.999985-95.999985 95.999985z" p-id="36384"></path><path d="M639.99998 495.983923a15.999998 15.999998 0 1 1 0-31.999995c17.647997 0 31.999995-14.351998 31.999995-31.999995a15.999998 15.999998 0 1 1 31.999995 0c0 35.295994-28.703996 63.99999-63.99999 63.99999z" p-id="36385"></path><path d="M639.99998 495.983923h-87.999986a15.999998 15.999998 0 1 1 0-31.999995H639.99998a15.999998 15.999998 0 1 1 0 31.999995zM607.999985 575.98391h-55.999991a15.999998 15.999998 0 1 1 0-31.999995H607.999985a15.999998 15.999998 0 1 1 0 31.999995z" p-id="36386"></path><path d="M551.999994 575.98391c-30.879995 0-55.999991-25.119996-55.999992-55.999991s25.119996-55.999991 55.999992-55.999991a15.999998 15.999998 0 1 1 0 31.999995c-13.231998 0-23.999996 10.767998-23.999996 23.999996s10.767998 23.999996 23.999996 23.999996a15.999998 15.999998 0 1 1 0 31.999995zM687.999973 495.983923a15.999998 15.999998 0 0 1-15.999998-15.999998v-47.999992a15.999998 15.999998 0 1 1 31.999995 0v47.999992a15.999998 15.999998 0 0 1-15.999997 15.999998z" p-id="36387"></path><path d="M559.983993 208.047967a15.999998 15.999998 0 1 1 0-31.999995 112.159982 112.159982 0 0 0 112.031982-112.031982 15.999998 15.999998 0 1 1 31.999995 0c0 79.423988-64.60799 144.031977-144.031977 144.031977z" p-id="36388"></path><path d="M639.99998 80.015987a15.999998 15.999998 0 1 1 0-31.999995c17.647997 0 31.999995-14.351998 31.999995-31.999995a15.999998 15.999998 0 1 1 31.999995 0c0 35.295994-28.703996 63.99999-63.99999 63.99999z" p-id="36389"></path><path d="M639.99998 80.047987H449.00801a15.999998 15.999998 0 1 1 0-31.999995H639.99998a15.999998 15.999998 0 1 1 0 31.999995zM559.983993 208.047967h-110.991983a15.999998 15.999998 0 1 1 0-31.999995h110.991983a15.999998 15.999998 0 1 1 0 31.999995z" p-id="36390"></path><path d="M448.00001 208.047967c-44.111993 0-79.999988-35.887994-79.999988-79.999987s35.887994-79.999988 79.999988-79.999988a15.999998 15.999998 0 1 1 0 31.999995c-26.463996 0-47.999993 21.535997-47.999993 47.999993s21.535997 47.999993 47.999993 47.999992a15.999998 15.999998 0 1 1 0 31.999995zM687.999973 80.015987a15.999998 15.999998 0 0 1-15.999998-15.999997v-47.999993a15.999998 15.999998 0 1 1 31.999995 0v47.999993a15.999998 15.999998 0 0 1-15.999997 15.999997z" p-id="36391"></path><path d="M352.000025 639.9839a15.999998 15.999998 0 0 1-15.999998-15.999997v-96.047985a15.999998 15.999998 0 1 1 31.999995 0v96.047985a15.999998 15.999998 0 0 1-15.999997 15.999997z" p-id="36392"></path><path d="M671.999975 643.1519a15.999998 15.999998 0 0 1-15.999997-15.999998v-99.215984a15.999998 15.999998 0 1 1 31.999995 0v99.215984a15.999998 15.999998 0 0 1-15.999998 15.999998z" p-id="36393"></path><path d="M512 783.983878c-1.712 0-3.439999-0.288-5.071999-0.832C401.504017 747.871883 336.000027 680.751894 336.000027 607.983905a15.999998 15.999998 0 1 1 31.999995 0c0 57.471991 55.023991 111.983983 143.999978 143.087978 88.975986-31.103995 143.983978-85.631987 143.983978-143.087978a15.999998 15.999998 0 1 1 31.999995 0c0 72.767989-65.48799 139.887978-170.911974 175.167973-1.632 0.544-3.359999 0.832-5.071999 0.832z" p-id="36394"></path><path d="M432.000012 847.983868a15.999998 15.999998 0 0 1-14.863997-10.063999l-31.999995-79.967987a15.999998 15.999998 0 0 1 29.727995-11.871999l31.999995 79.967988A15.999998 15.999998 0 0 1 432.000012 847.983868z" p-id="36395"></path><path d="M431.984013 847.983868a15.999998 15.999998 0 0 1-3.12-31.695996l79.999987-15.999997a15.999998 15.999998 0 0 1 6.288 31.375995l-79.999988 15.999998a15.535998 15.535998 0 0 1-3.167999 0.32zM591.999988 847.983868a15.999998 15.999998 0 0 1-14.863998-21.935997l31.999995-79.967988a15.999998 15.999998 0 1 1 29.727995 11.871999l-31.999995 79.967987a15.999998 15.999998 0 0 1-14.863997 10.063999z" p-id="36396"></path><path d="M592.015987 847.983868a15.167998 15.167998 0 0 1-3.151999-0.32l-79.999988-15.999998a15.999998 15.999998 0 0 1-12.543998-18.831997 15.919998 15.919998 0 0 1 18.831998-12.543998l79.999987 15.999997a15.999998 15.999998 0 0 1-3.136 31.695996z" p-id="36397"></path><path d="M863.919945 938.543853a15.951998 15.951998 0 0 1-11.311998-4.687999L682.063973 763.311881a15.983998 15.983998 0 1 1 22.623997-22.623997l170.543973 170.543974a15.983998 15.983998 0 0 1-11.311998 27.311995zM700.415971 1023.96784a15.951998 15.951998 0 0 1-11.311999-4.687999L498.912002 829.07187a15.983998 15.983998 0 1 1 22.623997-22.623996l190.20797 190.20797a15.983998 15.983998 0 0 1-11.327998 27.311996zM451.568009 1023.99984a15.951998 15.951998 0 0 1-11.311998-4.687999L205.664048 784.703877a15.983998 15.983998 0 1 1 22.623996-22.623996L462.880008 996.687844A15.983998 15.983998 0 0 1 451.568009 1023.99984z" p-id="36398"></path><path d="M572.463991 1023.98384a15.983998 15.983998 0 0 1-11.311999-27.311996l234.255964-234.255963a15.983998 15.983998 0 1 1 22.623996 22.623996L583.775989 1019.295841a15.951998 15.951998 0 0 1-11.311998 4.687999zM323.552029 1023.98384a15.983998 15.983998 0 0 1-11.311998-27.311996l190.23997-190.22397a15.983998 15.983998 0 1 1 22.623997 22.623996l-190.23997 190.223971a15.983998 15.983998 0 0 1-11.311999 4.687999zM160.080055 938.543853a15.983998 15.983998 0 0 1-11.311998-27.311995l170.543973-170.543974a15.983998 15.983998 0 1 1 22.623997 22.623997L171.392053 933.855854a15.887998 15.887998 0 0 1-11.311998 4.687999z" p-id="36399"></path><path d="M354.000025 644.591899a15.887998 15.887998 0 0 1-10.527999-3.951999A256.06396 256.06396 0 0 1 256.00004 447.95193a15.999998 15.999998 0 1 1 31.999995 0c0 64.57599 27.887996 126.03198 76.527988 168.591974a15.999998 15.999998 0 0 1-10.527998 28.047995z" p-id="36400"></path><path d="M670.015975 644.591899a15.999998 15.999998 0 0 1-10.527998-28.047995A224.063965 224.063965 0 0 0 735.999965 447.95193a15.999998 15.999998 0 1 1 31.999995 0c0 73.807988-31.871995 144.031977-87.455986 192.68797a15.887998 15.887998 0 0 1-10.527999 3.951999z" p-id="36401"></path></svg>