<svg t="1583944976077" fill="currentColor" class="icon" viewBox="0 0 1024 1024" version="1.1" xmlns="http://www.w3.org/2000/svg" p-id="3430" width="128" height="128"><path d="M832 946.28a13.66 13.66 0 0 0-7.14-12c-54.14-29.1-103.52-73.64-125.24-96a20.1 20.1 0 0 0-25.44-3.02c-100.66 64.84-223.22 64.88-323.9 0.1a20.18 20.18 0 0 0-25.64 3.12c-21.54 22.56-70.38 66.6-124.86 95.5a14.22 14.22 0 0 0-7.78 11.46 13.46 13.46 0 0 0 15.84 14.3c41.7-8.36 82-27.36 120.4-47.66a17.42 17.42 0 0 1 16-0.12 370.28 370.28 0 0 0 335.62 0 17.64 17.64 0 0 1 16.18 0.12c38.2 20 78.44 39.18 120 47.6a13.46 13.46 0 0 0 16-13.42zM953.42 493.82c-6.98-16.78-21.8-29.78-41.8-36.7L864 438.16V272a128 128 0 0 0-128-128h-64v-16a80 80 0 0 0-80-80h-160a80 80 0 0 0-80 80v16h-64a128 128 0 0 0-128 128v166.3l-47.16 18.78c-19.88 6.6-35.26 20-42.3 36.88-4.9 11.78-10.5 30-2.6 52.92l0.2 0.6 93.32 238.88A46.66 46.66 0 0 0 205.16 816c1 0 2 0 3.06-0.1 62.64-4 112-34.54 145.2-63.22C400.84 793.62 456.62 816 512 816s110.86-22.4 158.28-63.4c33.18 28.72 82.6 59.34 145.22 63.3a46.72 46.72 0 0 0 46.74-29.48l93.3-238c6.56-16.18 5.8-35.52-2.12-54.6zM538 308.42l-2.28-0.8a79.06 79.06 0 0 0-47.46 0l-1.16 0.36-252.14 100.46a8 8 0 0 1-10.96-7.44V272a64 64 0 0 1 64-64h448a64 64 0 0 1 64 64v128.88a8 8 0 0 1-10.96 7.44z" p-id="3431"></path></svg>