<svg t="1583979416397" fill="currentColor" class="icon" viewBox="0 0 1024 1024" version="1.1" xmlns="http://www.w3.org/2000/svg" p-id="5816" width="128" height="128"><path d="M938.666667 42.666667h-853.333334C34.133333 42.666667 0 85.333333 0 128v597.333333c0 51.2 42.666667 85.333333 85.333333 85.333334h341.333334v85.333333H298.666667c-25.6 0-42.666667 17.066667-42.666667 42.666667s17.066667 42.666667 42.666667 42.666666h426.666666c25.6 0 42.666667-17.066667 42.666667-42.666666s-17.066667-42.666667-42.666667-42.666667H597.333333v-85.333333h341.333334c51.2 0 85.333333-42.666667 85.333333-85.333334V128c0-42.666667-42.666667-85.333333-85.333333-85.333333z m0 682.666666h-853.333334V128h853.333334v597.333333z"  p-id="5817"></path></svg>