<svg t="1583979764872" fill="currentColor" class="icon" viewBox="0 0 1024 1024" version="1.1" xmlns="http://www.w3.org/2000/svg" p-id="13467" width="128" height="128"><path d="M512 51.2c253.44 0 460.8 207.36 460.8 460.8s-207.36 460.8-460.8 460.8S51.2 765.44 51.2 512 258.56 51.2 512 51.2z m282.24 270.72l-472.32 472.32c57.6 34.56 120.96 57.6 190.08 57.6 184.32 0 339.84-155.52 339.84-339.84 0-66.2528-21.1712-132.48-53.3504-183.5008l-4.2496-6.5792zM512 172.16C321.92 172.16 172.16 327.68 172.16 512c0 71.8848 21.248 138.4704 58.624 189.5424l4.736 6.2976L707.84 235.52C656 195.2 586.88 172.16 512 172.16z" p-id="13468"></path></svg>