<svg t="1583945183104" fill="currentColor" class="icon" viewBox="0 0 1024 1024" version="1.1" xmlns="http://www.w3.org/2000/svg" p-id="18611" width="128" height="128"><path d="M955.392512 767.8976A509.2352 509.2352 0 0 0 1024.000512 512c0-93.184-25.0368-180.5824-68.608-255.8464V256A511.6416 511.6416 0 0 0 512.000512 0a511.6416 511.6416 0 0 0-443.2896 255.9488L68.608512 256A509.5424 509.5424 0 0 0 0.000512 512c0 93.2864 25.088 180.6336 68.608 256l0.1024 0.0512A511.6928 511.6928 0 0 0 512.000512 1024a511.6416 511.6416 0 0 0 443.392-256v-0.1024z m-69.4784-471.808l-138.5984 80.0768A271.9744 271.9744 0 0 0 512.000512 239.9744V80.0256a432.128 432.128 0 0 1 373.9136 216.1152zM320.000512 512A192.2048 192.2048 0 0 1 512.000512 320 192.2048 192.2048 0 0 1 704.000512 512 192.2048 192.2048 0 0 1 512.000512 704 192.2048 192.2048 0 0 1 320.000512 512z m-240.0256 0c0-78.6432 21.248-152.32 58.112-215.9104l138.5984 80.0768a269.9264 269.9264 0 0 0 0 271.6672l-138.6496 80.0768A429.2608 429.2608 0 0 1 79.974912 512zM512.000512 944.0256v-160a271.9232 271.9232 0 0 0 235.3152-136.192l138.5984 80.0768A432.128 432.128 0 0 1 512.000512 943.9744z" p-id="18612"></path></svg>