<svg t="1583979551727" fill="currentColor" class="icon" viewBox="0 0 1024 1024" version="1.1" xmlns="http://www.w3.org/2000/svg" p-id="9175" width="128" height="128"><path d="M512 39.384615c259.938462 0 472.615385 212.676923 472.615385 472.615385s-212.676923 472.615385-472.615385 472.615385S39.384615 771.938462 39.384615 512 252.061538 39.384615 512 39.384615m0-39.384615C228.430769 0 0 228.430769 0 512s228.430769 512 512 512 512-228.430769 512-512S795.569231 0 512 0z" p-id="9176"></path><path d="M512 807.384615c-23.630769 0-39.384615-15.753846-39.384615-39.384615v-354.461538c0-23.630769 15.753846-39.384615 39.384615-39.384616s39.384615 15.753846 39.384615 39.384616v354.461538c0 23.630769-15.753846 39.384615-39.384615 39.384615z m0-512c-23.630769 0-39.384615-15.753846-39.384615-39.384615s15.753846-39.384615 39.384615-39.384615 39.384615 15.753846 39.384615 39.384615-15.753846 39.384615-39.384615 39.384615z" p-id="9177"></path></svg>