<svg t="1583945124397"  fill="currentColor" class="icon" viewBox="0 0 1024 1024" version="1.1" xmlns="http://www.w3.org/2000/svg" p-id="15313" width="128" height="128"><path d="M938.666667 661.333333v153.6c0 12.8-4.266667 25.6-12.8 34.133334s-21.333333 12.8-34.133334 12.8h-153.6c-12.8 0-25.6-4.266667-34.133333-12.8-8.533333-8.533333-12.8-21.333333-12.8-34.133334v-153.6c0-12.8 4.266667-25.6 12.8-34.133333 8.533333-8.533333 21.333333-12.8 34.133333-12.8h46.933334v-89.6h-243.2v89.6h46.933333c12.8 0 25.6 4.266667 34.133333 12.8 8.533333 8.533333 12.8 21.333333 12.8 34.133333v153.6c0 12.8-4.266667 25.6-12.8 34.133334-8.533333 8.533333-21.333333 12.8-34.133333 12.8h-153.6c-12.8 0-25.6-4.266667-34.133333-12.8-8.533333-8.533333-12.8-21.333333-12.8-34.133334v-153.6c0-12.8 4.266667-25.6 12.8-34.133333 8.533333-8.533333 21.333333-12.8 34.133333-12.8h46.933333v-89.6H238.933333v89.6h46.933334c12.8 0 25.6 4.266667 34.133333 12.8 8.533333 8.533333 12.8 21.333333 12.8 34.133333v153.6c0 12.8-4.266667 25.6-12.8 34.133334s-21.333333 12.8-34.133333 12.8H132.266667c-12.8 0-25.6-4.266667-34.133334-12.8s-12.8-21.333333-12.8-34.133334v-153.6c0-12.8 4.266667-25.6 12.8-34.133333 8.533333-8.533333 21.333333-12.8 34.133334-12.8h46.933333v-89.6c0-17.066667 4.266667-29.866667 17.066667-42.666667 12.8-12.8 25.6-17.066667 42.666666-17.066666h243.2V371.2h-46.933333c-12.8 0-25.6-4.266667-34.133333-12.8-8.533333-8.533333-12.8-21.333333-12.8-34.133333V174.933333c0-12.8 4.266667-25.6 12.8-34.133333 12.8-8.533333 21.333333-12.8 34.133333-12.8h153.6c12.8 0 25.6 4.266667 34.133333 12.8 8.533333 8.533333 12.8 21.333333 12.8 34.133333v153.6c0 12.8-4.266667 25.6-12.8 34.133334-8.533333 8.533333-21.333333 12.8-34.133333 12.8h-46.933333v89.6h243.2c17.066667 0 29.866667 4.266667 42.666666 17.066666s17.066667 25.6 17.066667 42.666667v89.6h46.933333c12.8 0 25.6 4.266667 34.133334 12.8 8.533333 8.533333 12.8 21.333333 12.8 34.133333z" p-id="15314"></path></svg>