<svg t="1583979720789" fill="currentColor" class="icon" viewBox="0 0 1024 1024" version="1.1" xmlns="http://www.w3.org/2000/svg" p-id="12739" width="32" height="32"><path d="M864 320h-704a32 32 0 0 1 0-64H320v-32A96 96 0 0 1 416 128h192A96 96 0 0 1 704 224V256h160a32 32 0 0 1 0 64zM576 192H448a64 64 0 0 0-64 64h256a64 64 0 0 0-64-64z m-192 544v-320a32 32 0 0 1 64 0v320a32 32 0 0 1-64 0z m192 0v-320a32 32 0 0 1 64 0v320a32 32 0 0 1-64 0zM224 384a32 32 0 0 1 32 32V768a64 64 0 0 0 64 64h384a64 64 0 0 0 64-64V416a32 32 0 0 1 64 0V768a128 128 0 0 1-128 128H320a128 128 0 0 1-128-128V416a32 32 0 0 1 32-32z" p-id="12740"></path></svg>